<?xml version="1.0" encoding="UTF-8" standalone="no"?>
<svg
   xmlns:dc="http://purl.org/dc/elements/1.1/"
   xmlns:cc="http://creativecommons.org/ns#"
   xmlns:rdf="http://www.w3.org/1999/02/22-rdf-syntax-ns#"
   xmlns:svg="http://www.w3.org/2000/svg"
   xmlns="http://www.w3.org/2000/svg"
   xmlns:sodipodi="http://sodipodi.sourceforge.net/DTD/sodipodi-0.dtd"
   xmlns:inkscape="http://www.inkscape.org/namespaces/inkscape"
   width="48"
   height="48"
   viewBox="0 0 48 48"
   version="1.1"
   id="svg6"
   sodipodi:docname="po_contacts_app_icon.svg"
   inkscape:version="0.92.3 (2405546, 2018-03-11)">
  <metadata
     id="metadata12">
    <rdf:RDF>
      <cc:Work
         rdf:about="">
        <dc:format>image/svg+xml</dc:format>
        <dc:type
           rdf:resource="http://purl.org/dc/dcmitype/StillImage" />
        <dc:title />
      </cc:Work>
    </rdf:RDF>
  </metadata>
  <defs
     id="defs10" />
  <sodipodi:namedview
     pagecolor="#ffffff"
     bordercolor="#666666"
     borderopacity="1"
     objecttolerance="10"
     gridtolerance="10"
     guidetolerance="10"
     inkscape:pageopacity="0"
     inkscape:pageshadow="2"
     inkscape:window-width="3840"
     inkscape:window-height="1919"
     id="namedview8"
     showgrid="false"
     inkscape:zoom="6.9532167"
     inkscape:cx="-58.27049"
     inkscape:cy="16.020269"
     inkscape:window-x="0"
     inkscape:window-y="55"
     inkscape:window-maximized="1"
     inkscape:current-layer="svg6" />
  <g
     id="g858"
     transform="matrix(1.5,0,0,1.5,6,-30)">
    <path
       style="fill:#4caf50;fill-opacity:1"
       sodipodi:nodetypes="scssscssssssssccsssc"
       id="path4-3"
       d="m 18,32.5 h -1 v -2 c 0,-2.76 -2.24,-5 -5,-5 -2.7600001,0 -4.9999999,2.24 -4.9999999,5 v 2 h -1 c -1.1,0 -2,0.9 -2,2 v 10 c 0,1.1 0.9,2 2,2 H 18 c 1.1,0 2,-0.9 2,-2 v -10 c 0,-1.1 -0.9,-2 -2,-2 z m -2.9,0 H 8.8999999 v -2 C 8.8999999,28.79 10.29,27.4 12,27.4 c 1.71,0 3.1,1.39 3.1,3.1 z"
       inkscape:connector-curvature="0" />
    <g
       transform="translate(-35.224845,49.919712)"
       id="g832">
      <rect
         style="opacity:1;fill:#ffffff;fill-opacity:1;stroke:none;stroke-width:0.5;stroke-linejoin:round;stroke-miterlimit:4;stroke-dasharray:none;stroke-opacity:1"
         id="rect828"
         width="10.930193"
         height="10.642556"
         x="41.851135"
         y="-15.40622" />
      <path
         d="m 52.474845,-17.216322 c -3.5,0 -7,0 -10.5,0 -0.8325,0 -1.5,0.675 -1.5,1.5 v 10.5000009 c 0,0.825 0.6675,1.5 1.5,1.5 h 10.5 c 0.825,0 1.5,-0.675 1.5,-1.5 V -15.716322 c 0,-0.825 -0.675,-1.5 -1.5,-1.5 z m -5.25,2.25 c 1.245,0 2.25,1.005 2.25,2.25 0,1.245 -1.005,2.25 -2.25,2.25 -1.245,0 -2.25,-1.005 -2.25,-2.25 0,-1.245 1.005,-2.25 2.25,-2.25 z m 4.5,9.0000009 h -9 v -0.75 c 0,-1.5 3,-2.325 4.5,-2.325 1.5,0 4.5,0.825 4.5,2.325 z"
         id="path2"
         inkscape:connector-curvature="0"
         sodipodi:nodetypes="ccsssssscsssssccsssc"
         style="fill:#4caf50;fill-opacity:1;stroke-width:0.75" />
    </g>
    <path
       style="fill:none"
       inkscape:connector-curvature="0"
       id="path4"
       d="M 0,24 H 24 V 48 H 0 Z" />
  </g>
</svg>
